<mxfile host="app.diagrams.net" modified="2023-04-10T15:50:10.809Z" agent="Mozilla/5.0 (Windows NT 10.0; Win64; x64; rv:109.0) Gecko/20100101 Firefox/111.0" etag="zUBqoC6_uQXPsvnNrdwU" version="21.1.5" type="device">
  <diagram name="Page-1" id="-1dcQAEnModNl6x-fjU3">
    <mxGraphModel dx="1498" dy="786" grid="1" gridSize="10" guides="1" tooltips="1" connect="1" arrows="1" fold="1" page="1" pageScale="1" pageWidth="850" pageHeight="1100" math="0" shadow="0">
      <root>
        <mxCell id="0" />
        <mxCell id="1" parent="0" />
        <mxCell id="IPyDk9mUC_y_oGqltNyG-34" value="Encapsulated Build Route strategy" style="rounded=0;whiteSpace=wrap;html=1;align=center;verticalAlign=top;dashed=1;" parent="1" vertex="1">
          <mxGeometry x="260" y="280" width="460" height="310" as="geometry" />
        </mxCell>
        <mxCell id="IPyDk9mUC_y_oGqltNyG-6" value="Navigator" style="swimlane;fontStyle=1;align=center;verticalAlign=top;childLayout=stackLayout;horizontal=1;startSize=26;horizontalStack=0;resizeParent=1;resizeParentMax=0;resizeLast=0;collapsible=1;marginBottom=0;whiteSpace=wrap;html=1;" parent="1" vertex="1">
          <mxGeometry x="30" y="319" width="200" height="86" as="geometry" />
        </mxCell>
        <mxCell id="IPyDk9mUC_y_oGqltNyG-7" value="&lt;div&gt;+ routeStrategy: IRouteStrategy&lt;/div&gt;&lt;div&gt;&lt;br&gt;&lt;/div&gt;" style="text;strokeColor=none;fillColor=none;align=left;verticalAlign=top;spacingLeft=4;spacingRight=4;overflow=hidden;rotatable=0;points=[[0,0.5],[1,0.5]];portConstraint=eastwest;whiteSpace=wrap;html=1;" parent="IPyDk9mUC_y_oGqltNyG-6" vertex="1">
          <mxGeometry y="26" width="200" height="26" as="geometry" />
        </mxCell>
        <mxCell id="IPyDk9mUC_y_oGqltNyG-8" value="" style="line;strokeWidth=1;fillColor=none;align=left;verticalAlign=middle;spacingTop=-1;spacingLeft=3;spacingRight=3;rotatable=0;labelPosition=right;points=[];portConstraint=eastwest;strokeColor=inherit;" parent="IPyDk9mUC_y_oGqltNyG-6" vertex="1">
          <mxGeometry y="52" width="200" height="8" as="geometry" />
        </mxCell>
        <mxCell id="IPyDk9mUC_y_oGqltNyG-9" value="+ BuildRoute(string, string): void" style="text;strokeColor=none;fillColor=none;align=left;verticalAlign=top;spacingLeft=4;spacingRight=4;overflow=hidden;rotatable=0;points=[[0,0.5],[1,0.5]];portConstraint=eastwest;whiteSpace=wrap;html=1;" parent="IPyDk9mUC_y_oGqltNyG-6" vertex="1">
          <mxGeometry y="60" width="200" height="26" as="geometry" />
        </mxCell>
        <mxCell id="IPyDk9mUC_y_oGqltNyG-13" value="1" style="endArrow=open;html=1;endSize=12;startArrow=diamondThin;startSize=14;startFill=0;edgeStyle=orthogonalEdgeStyle;align=left;verticalAlign=bottom;rounded=0;entryX=0;entryY=0.5;entryDx=0;entryDy=0;" parent="1" target="IPyDk9mUC_y_oGqltNyG-23" edge="1">
          <mxGeometry x="-1" y="3" relative="1" as="geometry">
            <mxPoint x="230" y="359" as="sourcePoint" />
            <mxPoint x="390" y="360" as="targetPoint" />
          </mxGeometry>
        </mxCell>
        <mxCell id="puqbBpfIGdzjwdi_X_jo-1" value="&lt;div&gt;HAS-A&lt;/div&gt;" style="edgeLabel;html=1;align=center;verticalAlign=middle;resizable=0;points=[];" vertex="1" connectable="0" parent="IPyDk9mUC_y_oGqltNyG-13">
          <mxGeometry x="0.75" y="1" relative="1" as="geometry">
            <mxPoint x="-50" y="-8" as="offset" />
          </mxGeometry>
        </mxCell>
        <mxCell id="IPyDk9mUC_y_oGqltNyG-14" value="ByCar" style="swimlane;fontStyle=1;align=center;verticalAlign=top;childLayout=stackLayout;horizontal=1;startSize=26;horizontalStack=0;resizeParent=1;resizeParentMax=0;resizeLast=0;collapsible=1;marginBottom=0;whiteSpace=wrap;html=1;" parent="1" vertex="1">
          <mxGeometry x="270" y="451" width="190" height="52" as="geometry" />
        </mxCell>
        <mxCell id="IPyDk9mUC_y_oGqltNyG-17" value="+ BuildRoute(string,string): void" style="text;strokeColor=none;fillColor=none;align=left;verticalAlign=top;spacingLeft=4;spacingRight=4;overflow=hidden;rotatable=0;points=[[0,0.5],[1,0.5]];portConstraint=eastwest;whiteSpace=wrap;html=1;" parent="IPyDk9mUC_y_oGqltNyG-14" vertex="1">
          <mxGeometry y="26" width="190" height="26" as="geometry" />
        </mxCell>
        <mxCell id="IPyDk9mUC_y_oGqltNyG-20" value="" style="endArrow=block;dashed=1;endFill=0;endSize=12;html=1;rounded=0;exitX=0.5;exitY=0;exitDx=0;exitDy=0;entryX=0.25;entryY=1;entryDx=0;entryDy=0;" parent="1" source="IPyDk9mUC_y_oGqltNyG-14" target="IPyDk9mUC_y_oGqltNyG-23" edge="1">
          <mxGeometry width="160" relative="1" as="geometry">
            <mxPoint x="640" y="441" as="sourcePoint" />
            <mxPoint x="450" y="395.5" as="targetPoint" />
          </mxGeometry>
        </mxCell>
        <mxCell id="IPyDk9mUC_y_oGqltNyG-23" value="&lt;p style=&quot;margin:0px;margin-top:4px;text-align:center;&quot;&gt;&lt;i&gt;&amp;lt;&amp;lt;Interface&amp;gt;&amp;gt;&lt;/i&gt;&lt;/p&gt;&lt;p style=&quot;margin:0px;margin-top:4px;text-align:center;&quot;&gt;&lt;b&gt;&lt;i&gt;IRouteStrategy&lt;/i&gt;&lt;/b&gt;&lt;/p&gt;&lt;hr size=&quot;1&quot;&gt;&lt;p style=&quot;margin:0px;margin-left:4px;&quot;&gt;+ &lt;i&gt;BuildRoute(string,string): void&lt;/i&gt;&lt;/p&gt;" style="verticalAlign=top;align=left;overflow=fill;fontSize=12;fontFamily=Helvetica;html=1;whiteSpace=wrap;" parent="1" vertex="1">
          <mxGeometry x="390" y="319" width="200" height="80" as="geometry" />
        </mxCell>
        <mxCell id="IPyDk9mUC_y_oGqltNyG-24" value="ByBicycle" style="swimlane;fontStyle=1;align=center;verticalAlign=top;childLayout=stackLayout;horizontal=1;startSize=26;horizontalStack=0;resizeParent=1;resizeParentMax=0;resizeLast=0;collapsible=1;marginBottom=0;whiteSpace=wrap;html=1;" parent="1" vertex="1">
          <mxGeometry x="390" y="524" width="200" height="52" as="geometry" />
        </mxCell>
        <mxCell id="IPyDk9mUC_y_oGqltNyG-25" value="+ BuildRoute(string,string): void" style="text;strokeColor=none;fillColor=none;align=left;verticalAlign=top;spacingLeft=4;spacingRight=4;overflow=hidden;rotatable=0;points=[[0,0.5],[1,0.5]];portConstraint=eastwest;whiteSpace=wrap;html=1;" parent="IPyDk9mUC_y_oGqltNyG-24" vertex="1">
          <mxGeometry y="26" width="200" height="26" as="geometry" />
        </mxCell>
        <mxCell id="IPyDk9mUC_y_oGqltNyG-27" value="ByWalk" style="swimlane;fontStyle=1;align=center;verticalAlign=top;childLayout=stackLayout;horizontal=1;startSize=26;horizontalStack=0;resizeParent=1;resizeParentMax=0;resizeLast=0;collapsible=1;marginBottom=0;whiteSpace=wrap;html=1;" parent="1" vertex="1">
          <mxGeometry x="510" y="451" width="190" height="52" as="geometry" />
        </mxCell>
        <mxCell id="IPyDk9mUC_y_oGqltNyG-28" value="+ BuildRoute(string,string): void" style="text;strokeColor=none;fillColor=none;align=left;verticalAlign=top;spacingLeft=4;spacingRight=4;overflow=hidden;rotatable=0;points=[[0,0.5],[1,0.5]];portConstraint=eastwest;whiteSpace=wrap;html=1;" parent="IPyDk9mUC_y_oGqltNyG-27" vertex="1">
          <mxGeometry y="26" width="190" height="26" as="geometry" />
        </mxCell>
        <mxCell id="IPyDk9mUC_y_oGqltNyG-31" value="" style="endArrow=block;dashed=1;endFill=0;endSize=12;html=1;rounded=0;exitX=0.5;exitY=0;exitDx=0;exitDy=0;entryX=0.5;entryY=1;entryDx=0;entryDy=0;" parent="1" source="IPyDk9mUC_y_oGqltNyG-24" target="IPyDk9mUC_y_oGqltNyG-23" edge="1">
          <mxGeometry width="160" relative="1" as="geometry">
            <mxPoint x="650" y="421" as="sourcePoint" />
            <mxPoint x="510" y="401" as="targetPoint" />
          </mxGeometry>
        </mxCell>
        <mxCell id="IPyDk9mUC_y_oGqltNyG-32" value="" style="endArrow=block;dashed=1;endFill=0;endSize=12;html=1;rounded=0;exitX=0.5;exitY=0;exitDx=0;exitDy=0;entryX=0.75;entryY=1;entryDx=0;entryDy=0;" parent="1" source="IPyDk9mUC_y_oGqltNyG-27" target="IPyDk9mUC_y_oGqltNyG-23" edge="1">
          <mxGeometry width="160" relative="1" as="geometry">
            <mxPoint x="640" y="421" as="sourcePoint" />
            <mxPoint x="800" y="421" as="targetPoint" />
          </mxGeometry>
        </mxCell>
        <mxCell id="IPyDk9mUC_y_oGqltNyG-38" value="routeStrategy.BuildRoute(from, to);" style="shape=note;size=20;whiteSpace=wrap;html=1;fillColor=#f5f5f5;fontColor=#333333;strokeColor=#666666;" parent="1" vertex="1">
          <mxGeometry x="10" y="451" width="230" height="30" as="geometry" />
        </mxCell>
        <mxCell id="IPyDk9mUC_y_oGqltNyG-45" style="edgeStyle=orthogonalEdgeStyle;rounded=0;orthogonalLoop=1;jettySize=auto;html=1;exitX=1;exitY=0.5;exitDx=0;exitDy=0;dashed=1;endArrow=none;endFill=0;" parent="1" source="IPyDk9mUC_y_oGqltNyG-9" target="IPyDk9mUC_y_oGqltNyG-38" edge="1">
          <mxGeometry relative="1" as="geometry">
            <Array as="points">
              <mxPoint x="240" y="392" />
              <mxPoint x="240" y="428" />
              <mxPoint x="125" y="428" />
            </Array>
          </mxGeometry>
        </mxCell>
      </root>
    </mxGraphModel>
  </diagram>
</mxfile>
